<svg width="24" height="23" viewBox="0 0 24 23" fill="none" xmlns="http://www.w3.org/2000/svg">
<g filter="url(#filter0_d_1_13)">
<path d="M16.6 12.5C16.4 12.4 15.1 11.8 14.9 11.7C14.7 11.6 14.5 11.6 14.3 11.8C14.1 12 13.7 12.6 13.5 12.8C13.4 13 13.2 13 13 12.9C12.3 12.6 11.6 12.2 11 11.7C10.5 11.2 10 10.6 9.6 10C9.5 9.80001 9.6 9.60001 9.7 9.50001C9.8 9.40001 9.9 9.20001 10.1 9.10001C10.2 9.00001 10.3 8.80001 10.3 8.70001C10.4 8.60001 10.4 8.40001 10.3 8.30001C10.2 8.20001 9.7 7.00001 9.5 6.50001C9.4 5.80001 9.2 5.80001 9 5.80001C8.9 5.80001 8.7 5.80001 8.5 5.80001C8.3 5.80001 8 6.00001 7.9 6.10001C7.3 6.70001 7 7.40001 7 8.20001C7.1 9.10001 7.4 10 8 10.8C9.1 12.4 10.5 13.7 12.2 14.5C12.7 14.7 13.1 14.9 13.6 15C14.1 15.2 14.6 15.2 15.2 15.1C15.9 15 16.5 14.5 16.9 13.9C17.1 13.5 17.1 13.1 17 12.7C17 12.7 16.8 12.6 16.6 12.5ZM19.1 3.40001C15.2 -0.499994 8.9 -0.499994 5 3.40001C1.8 6.60001 1.2 11.5 3.4 15.4L2 20.5L7.3 19.1C8.8 19.9 10.4 20.3 12 20.3C17.5 20.3 21.9 15.9 21.9 10.4C22 7.80001 20.9 5.30001 19.1 3.40001ZM16.4 17.4C15.1 18.2 13.6 18.7 12 18.7C10.5 18.7 9.1 18.3 7.8 17.6L7.5 17.4L4.4 18.2L5.2 15.2L5 14.9C2.6 10.9 3.8 5.90001 7.7 3.40001C11.6 0.900006 16.6 2.20001 19 6.00001C21.4 9.90001 20.3 15 16.4 17.4Z" fill="#F9F9F9"/>
<path d="M16.5557 13.0369L16.5557 13.0369C16.5824 13.256 16.5569 13.4549 16.4657 13.6498C16.1135 14.166 15.6306 14.5334 15.1293 14.605L15.1293 14.6049L15.1178 14.6068C14.5626 14.6993 14.1663 14.688 13.7857 14.5358L13.7431 14.5187L13.6981 14.5097C13.3652 14.4431 13.0973 14.331 12.7508 14.1861C12.6428 14.1409 12.5273 14.0926 12.3998 14.0414C10.8005 13.2855 9.46902 12.0542 8.41202 10.5167L8.40618 10.5083L8.4 10.5C7.86824 9.791 7.59501 8.9897 7.50014 8.1729C7.50667 7.52549 7.74805 6.95906 8.25355 6.45356C8.25227 6.45485 8.25565 6.4514 8.26516 6.44353C8.27413 6.4361 8.2862 6.42668 8.30107 6.41592C8.33119 6.3941 8.36752 6.37059 8.40532 6.34959C8.44388 6.32816 8.47709 6.31319 8.50168 6.30455C8.50787 6.30237 8.51257 6.30093 8.51585 6.30001H8.5164H8.51758H8.51875H8.51992H8.52109H8.52226H8.52343H8.5246H8.52577H8.52694H8.52811H8.52929H8.53046H8.53163H8.5328H8.53397H8.53514H8.53631H8.53748H8.53865H8.53981H8.54098H8.54215H8.54332H8.54449H8.54566H8.54683H8.548H8.54916H8.55033H8.5515H8.55267H8.55383H8.555H8.55617H8.55733H8.5585H8.55967H8.56083H8.562H8.56316H8.56433H8.56549H8.56666H8.56782H8.56899H8.57015H8.57132H8.57248H8.57364H8.5748H8.57597H8.57713H8.57829H8.57945H8.58061H8.58178H8.58294H8.5841H8.58526H8.58642H8.58758H8.58874H8.58989H8.59105H8.59221H8.59337H8.59453H8.59568H8.59684H8.598H8.59915H8.60031H8.60146H8.60262H8.60377H8.60493H8.60608H8.60723H8.60839H8.60954H8.61069H8.61184H8.61299H8.61414H8.61529H8.61644H8.61759H8.61874H8.61989H8.62104H8.62218H8.62333H8.62448H8.62562H8.62677H8.62791H8.62906H8.6302H8.63135H8.63249H8.63363H8.63477H8.63592H8.63706H8.6382H8.63934H8.64048H8.64162H8.64275H8.64389H8.64503H8.64617H8.6473H8.64844H8.64957H8.65071H8.65184H8.65297H8.65411H8.65524H8.65637H8.6575H8.65863H8.65976H8.66089H8.66202H8.66315H8.66427H8.6654H8.66653H8.66765H8.66878H8.6699H8.67102H8.67214H8.67327H8.67439H8.67551H8.67663H8.67775H8.67887H8.67998H8.6811H8.68222H8.68333H8.68445H8.68556H8.68668H8.68779H8.6889H8.69001H8.69112H8.69223H8.69334H8.69445H8.69556H8.69667H8.69777H8.69888H8.69998H8.70109H8.70219H8.70329H8.70439H8.70549H8.70659H8.70769H8.70879H8.70989H8.71098H8.71208H8.71317H8.71427H8.71536H8.71645H8.71755H8.71864H8.71973H8.72082H8.7219H8.72299H8.72408H8.72516H8.72625H8.72733H8.72841H8.7295H8.73058H8.73166H8.73274H8.73382H8.73489H8.73597H8.73705H8.73812H8.73919H8.74027H8.74134H8.74241H8.74348H8.74455H8.74562H8.74668H8.74775H8.74882H8.74988H8.75094H8.752H8.75307H8.75413H8.75519H8.75624H8.7573H8.75836H8.75941H8.76047H8.76152H8.76257H8.76362H8.76467H8.76572H8.76677H8.76782H8.76886H8.76991H8.77095H8.77199H8.77303H8.77408H8.77511H8.77615H8.77719H8.77823H8.77926H8.78029H8.78133H8.78236H8.78339H8.78442H8.78545H8.78647H8.7875H8.78852H8.78955H8.79057H8.79159H8.79261H8.79363H8.79465H8.79567H8.79668H8.7977H8.79871H8.79972H8.80073H8.80174H8.80275H8.80376H8.80476H8.80577H8.80677H8.80777H8.80877H8.80977H8.81077H8.81177H8.81277H8.81376H8.81475H8.81575H8.81674H8.81773H8.81872H8.8197H8.82069H8.82167H8.82266H8.82364H8.82462H8.8256H8.82658H8.82755H8.82853H8.8295H8.83047H8.83145H8.83242H8.83338H8.83435H8.83532H8.83628H8.83725H8.83821H8.83917H8.84013H8.84109H8.84204H8.843H8.84395H8.8449H8.84585H8.8468H8.84775H8.8487H8.84964H8.85059H8.85153H8.85247H8.85341H8.85435H8.85528H8.85622H8.85715H8.85808H8.85901H8.85994H8.86087H8.8618H8.86272H8.86365H8.86457H8.86549H8.86641H8.86732H8.86824H8.86915H8.87007H8.87098H8.87189H8.8728H8.8737H8.87461H8.87551H8.87641H8.87731H8.87821H8.87911H8.88H8.8809H8.88179H8.88268H8.88357H8.88446H8.88535H8.88623H8.88711H8.88799H8.88887H8.88975H8.89063H8.8915H8.89238H8.89325H8.89412H8.89499H8.89585H8.89672H8.89758H8.89844H8.8993H8.90016H8.90102H8.90187H8.90273H8.90358H8.90443H8.90528H8.90612H8.90697H8.90781H8.90865H8.90949H8.91033H8.91117H8.912H8.91284H8.91367H8.9145H8.91532H8.91615H8.91697H8.9178H8.91862H8.91943H8.92025H8.92107H8.92188H8.92269H8.9235H8.92431H8.92512H8.92592H8.92672H8.92752H8.92832H8.92912H8.92991H8.93071H8.9315H8.93229H8.93308H8.93386H8.93465H8.93543H8.93621H8.93699H8.93776H8.93854H8.93931H8.94008H8.94085H8.94162H8.94238H8.94315H8.94391H8.94467H8.94543H8.94618H8.94694H8.94769H8.94844H8.94919H8.94925C8.96687 6.3571 8.98686 6.44353 9.00503 6.57072L9.0135 6.63005L9.03576 6.6857C9.13723 6.93938 9.31405 7.36881 9.47872 7.74881C9.56084 7.93832 9.64173 8.11967 9.7096 8.26205C9.74328 8.3327 9.77622 8.39893 9.80609 8.45375C9.8099 8.46073 9.81383 8.46784 9.81786 8.47503L9.8 8.4929V8.65552C9.79752 8.66133 9.79431 8.66835 9.79029 8.6764C9.78365 8.68967 9.77628 8.70275 9.76887 8.7146C9.63736 8.80056 9.54322 8.90212 9.47839 8.97991C9.44652 9.01816 9.4157 9.05834 9.39406 9.08657C9.38918 9.09292 9.38477 9.09867 9.38092 9.10366C9.35405 9.13843 9.34639 9.14651 9.34645 9.14645C9.16789 9.325 8.917 9.75203 9.15279 10.2236L9.16671 10.2515L9.18398 10.2774C9.6036 10.9068 10.125 11.5321 10.6464 12.0536L10.6625 12.0696L10.6799 12.0841C11.3209 12.6182 12.0601 13.04 12.791 13.3544C12.9387 13.426 13.1392 13.4888 13.3582 13.4575C13.5879 13.4247 13.7799 13.2962 13.9036 13.1009C14.0214 12.9717 14.1631 12.7826 14.2809 12.6255C14.2873 12.6169 14.2937 12.6084 14.3 12.6C14.4619 12.3842 14.5854 12.2217 14.6536 12.1536C14.6581 12.1491 14.6621 12.1453 14.6656 12.1421C14.6689 12.1436 14.6724 12.1452 14.6764 12.1472C14.7825 12.2003 15.1564 12.3747 15.5201 12.5445L15.5386 12.5531C15.9191 12.7307 16.2843 12.9012 16.3764 12.9472L16.3776 12.9478L16.3787 12.9484L16.3811 12.9496L16.3823 12.9501L16.3834 12.9507L16.3858 12.9519L16.3869 12.9525L16.3881 12.9531L16.3893 12.9537L16.3905 12.9542L16.3928 12.9554L16.394 12.956L16.3951 12.9566L16.3963 12.9572L16.3975 12.9578L16.3998 12.9589L16.4022 12.9601L16.4045 12.9613L16.4068 12.9624L16.408 12.963L16.4092 12.9636L16.4103 12.9642L16.4115 12.9648L16.4127 12.9654L16.4138 12.9659L16.415 12.9665L16.4162 12.9671L16.4185 12.9683L16.4208 12.9694L16.4232 12.9706L16.4243 12.9712L16.4255 12.9718L16.4267 12.9724L16.4278 12.9729L16.429 12.9735L16.4302 12.9741L16.4313 12.9747L16.4325 12.9753L16.4336 12.9758L16.4348 12.9764L16.4371 12.9776L16.4383 12.9782L16.4394 12.9787L16.4406 12.9793L16.4418 12.9799L16.4441 12.9811L16.4452 12.9816L16.4464 12.9822L16.4475 12.9828L16.4487 12.9834L16.4498 12.9839L16.451 12.9845L16.4522 12.9851L16.4533 12.9857L16.4556 12.9868L16.4579 12.988L16.4602 12.9891L16.4614 12.9897L16.4625 12.9903L16.4637 12.9909L16.4648 12.9914L16.4671 12.9926L16.4682 12.9931L16.4694 12.9937L16.4705 12.9943L16.4717 12.9949L16.4739 12.996L16.4762 12.9971L16.4785 12.9983L16.4796 12.9988L16.4808 12.9994L16.4819 13L16.483 13.0005L16.4853 13.0017L16.4864 13.0022L16.4876 13.0028L16.4887 13.0034L16.4898 13.0039L16.4921 13.0051L16.4943 13.0062L16.4966 13.0073L16.4988 13.0084L16.5011 13.0096L16.5033 13.0107L16.5044 13.0112L16.5056 13.0118L16.5067 13.0124L16.5078 13.0129L16.51 13.014L16.5111 13.0146L16.5122 13.0151L16.5144 13.0162L16.5156 13.0168L16.5167 13.0174L16.5189 13.0185L16.52 13.019L16.5211 13.0196L16.5222 13.0201L16.5233 13.0207L16.5244 13.0212L16.5255 13.0218L16.5277 13.0228L16.5287 13.0234L16.5298 13.0239L16.532 13.025L16.5331 13.0256L16.5342 13.0261L16.5353 13.0267L16.5364 13.0272L16.5375 13.0277L16.5385 13.0283L16.5396 13.0288L16.5407 13.0294L16.5418 13.0299L16.5428 13.0304L16.545 13.0315L16.5471 13.0326L16.5493 13.0337L16.5514 13.0347L16.5525 13.0353L16.5535 13.0358L16.5557 13.0369ZM3.88216 15.5324L3.93669 15.3337L3.83549 15.1543C1.7431 11.4451 2.31606 6.79105 5.35355 3.75356C9.0567 0.050409 15.0366 0.0488225 18.7417 3.7488C20.4616 5.56653 21.4943 7.93811 21.4004 10.3808L21.4 10.3904V10.4C21.4 15.6239 17.2239 19.8 12 19.8C10.4846 19.8 8.96516 19.4214 7.53529 18.6588L7.36209 18.5665L7.1723 18.6166L2.7121 19.7948L3.88216 15.5324ZM7.52265 18.016L7.54223 18.0291L7.56295 18.0402C8.92662 18.7745 10.4074 19.2 12 19.2C13.7061 19.2 15.2956 18.6667 16.662 17.8258C20.8077 15.2747 21.964 9.86251 19.4258 5.73796L19.4259 5.73794L19.4227 5.73301C16.8828 1.71143 11.5765 0.321165 7.43017 2.97907C3.30406 5.62401 2.03122 10.9239 4.57125 15.1573L4.57737 15.1675L4.58397 15.1774L4.65868 15.2894L3.91688 18.0712L3.69641 18.898L4.52494 18.6841L7.40857 17.94L7.52265 18.016Z" stroke="black"/>
</g>
<defs>
<filter id="filter0_d_1_13" x="-2" y="0.475006" width="27.9063" height="28.025" filterUnits="userSpaceOnUse" color-interpolation-filters="sRGB">
<feFlood flood-opacity="0" result="BackgroundImageFix"/>
<feColorMatrix in="SourceAlpha" type="matrix" values="0 0 0 0 0 0 0 0 0 0 0 0 0 0 0 0 0 0 127 0" result="hardAlpha"/>
<feOffset dy="4"/>
<feGaussianBlur stdDeviation="2"/>
<feComposite in2="hardAlpha" operator="out"/>
<feColorMatrix type="matrix" values="0 0 0 0 0 0 0 0 0 0 0 0 0 0 0 0 0 0 0.25 0"/>
<feBlend mode="normal" in2="BackgroundImageFix" result="effect1_dropShadow_1_13"/>
<feBlend mode="normal" in="SourceGraphic" in2="effect1_dropShadow_1_13" result="shape"/>
</filter>
</defs>
</svg>
